<svg width="22" height="20" viewBox="0 0 22 20" fill="none" xmlns="http://www.w3.org/2000/svg">
<path d="M21.8637 11.0833C21.8637 12.2858 20.8995 13.25 19.697 13.25H2.36369C1.78905 13.25 1.23795 13.0217 0.831621 12.6154C0.425301 12.2091 0.197021 11.658 0.197021 11.0833C0.197021 10.5087 0.425301 9.9576 0.831621 9.5513C1.23795 9.1449 1.78905 8.9167 2.36369 8.9167H12.1137L14.822 11.0833L17.5303 8.9167H19.697C20.2716 8.9167 20.8227 9.1449 21.2291 9.5513C21.6354 9.9576 21.8637 10.5087 21.8637 11.0833ZM11.0303 0.25C1.28036 0.25 1.28036 6.75 1.28036 6.75H20.7803C20.7803 6.75 20.7803 0.25 11.0303 0.25ZM1.28036 16.5C1.28036 18.2983 2.73202 19.75 4.53036 19.75H17.5303C19.3287 19.75 20.7803 18.2983 20.7803 16.5V15.4167H1.28036V16.5Z" fill="#FFD9D9"/>
</svg>
